<?xml version="1.0" encoding="UTF-8"?>
<mxfile>
  <diagram>
    <mxGraphModel>
      <root>
        <mxCell id="0" />
        <mxCell id="1" parent="0" />
      </root>
    </mxGraphModel>
  </diagram>
</mxfile>
